#!OML:ASF F:\VICON\USERDATA\INSTALL\rory3\rory3.ASF
:FULLY-SPECIFIED
:DEGREES
170
root -0.363896 18.0479 5.00389 -2.86397 -2.56059 -7.4942
lowerback 10.7393 1.43706 6.18193
upperback 0.707434 2.75745 1.88554
thorax -5.08898 1.23857 -1.9078
lowerneck -16.2963 -3.34992 -1.07906
upperneck 20.7308 -4.61807 1.02863
head 9.26529 -2.12569 -0.0536171
rclavicle 2.55563e-014 -1.55052e-014
rhumerus -24.3286 -9.4479 -83.0754
rradius 28.7224
rwrist 1.13219
rhand -18.5226 23.6189
rfingers 7.12502
rthumb 7.76597 -6.21847
lclavicle 2.55563e-014 -1.55052e-014
lhumerus -31.4496 0.33041 85.1537
lradius 26.0408
lwrist 7.20197
lhand -28.0781 20.0208
lfingers 7.12502
lthumb -1.46135 49.9956
rfemur -1.87163 5.21316 34.2924
rtibia 27.6178
rfoot -18.9455 -1.09607
rtoes 7.72412
lfemur -27.3288 2.39676 -12.1393
ltibia 51.5522
lfoot -8.21027 2.26788
ltoes -9.76999
171
root -0.360155 18.0434 5.16439 -2.65424 -2.67541 -7.51097
lowerback 10.685 1.55048 6.20974
upperback 0.649349 2.90924 1.87042
thorax -5.10626 1.31091 -1.95954
lowerneck -16.234 -3.36525 -1.1723
upperneck 20.6806 -4.64752 1.17173
head 9.24304 -2.13154 0.00847302
rclavicle -2.11084e-014 -8.64713e-015
rhumerus -24.0606 -9.12653 -83.0534
rradius 28.98
rwrist 1.15122
rhand -18.5374 24.7067
rfingers 7.12502
rthumb 7.75164 -5.13123
lclavicle -2.11084e-014 -8.64713e-015
lhumerus -31.6123 0.867688 85.0314
lradius 25.8108
lwrist 6.84326
lhand -28.0561 19.3837
lfingers 7.12502
lthumb -1.44008 49.3586
rfemur -1.2801 5.3261 34.3305
rtibia 27.1494
rfoot -19.1429 -1.15456
rtoes 7.75008
lfemur -27.4414 2.08769 -12.0928
ltibia 48.8979
lfoot -7.33389 3.05167
ltoes -6.73858
172
root -0.355654 18.0273 5.32049 -2.42612 -2.7561 -7.80136
lowerback 10.6284 1.64333 6.53248
upperback 0.646608 3.06814 1.90451
thorax -5.05089 1.38377 -2.12339
lowerneck -16.3109 -3.37745 -0.989891
upperneck 20.5204 -4.67631 1.0389
head 9.19354 -2.14625 -0.0702985
rclavicle 5.51627e-015 -2.14687e-014
rhumerus -23.5971 -8.95095 -83.0806
rradius 29.1256
rwrist 1.18247
rhand -18.2551 25.3724
rfingers 7.12502
rthumb 8.0241 -4.45528
lclavicle 5.51627e-015 -2.14687e-014
lhumerus -31.6577 0.997354 85.0239
lradius 25.5492
lwrist 7.15185
lhand -27.8304 19.3462
lfingers 7.12502
lthumb -1.22214 49.3224
rfemur -0.739282 5.37904 34.6943
rtibia 26.6823
rfoot -19.0638 -1.39992
rtoes 8.13228
lfemur -27.58 1.80912 -11.6773
ltibia 46.1551
lfoot -6.60272 3.29798
ltoes -4.42627
173
root -0.347639 18.0294 5.49215 -2.22435 -2.69446 -7.66316
lowerback 10.3707 1.69295 6.46868
upperback 0.60277 3.10362 1.83997
thorax -4.94942 1.40487 -2.15052
lowerneck -16.2277 -3.39064 -0.811201
upperneck 20.4849 -4.68408 0.79531
head 9.15469 -2.16403 -0.181676
rclavicle -2.79789e-014 8.74653e-015
rhumerus -23.1093 -8.77143 -83.0704
rradius 28.795
rwrist 1.2656
rhand -18.5294 26.1417
rfingers 7.12502
rthumb 7.75935 -3.69594
lclavicle -2.79789e-014 8.74653e-015
lhumerus -32.1138 1.14081 85.0293
lradius 25.5183
lwrist 7.71697
lhand -27.9928 19.4402
lfingers 7.12502
lthumb -1.37894 49.4155
rfemur -0.0624058 5.13285 34.5213
rtibia 26.1486
rfoot -19.06 -1.49098
rtoes 8.45257
lfemur -27.6082 1.18645 -11.7592
ltibia 43.2243
lfoot -6.65092 3.70515
ltoes -4.90226
174
root -0.338536 18.0262 5.6664 -1.95194 -2.69782 -7.61408
lowerback 10.0831 1.77006 6.46057
upperback 0.498103 3.18462 1.79866
thorax -4.89 1.44484 -2.19005
lowerneck -16.1286 -3.42435 -0.748926
upperneck 20.4349 -4.73018 0.725225
head 9.11597 -2.1897 -0.219087
rclavicle -1.92573e-014 3.97569e-015
rhumerus -22.8004 -8.61141 -83.0286
rradius 28.5539
rwrist 1.42441
rhand -18.9064 25.8737
rfingers 7.12502
rthumb 7.39552 -3.97702
lclavicle -1.92573e-014 3.97569e-015
lhumerus -32.8098 1.43463 84.9221
lradius 25.8188
lwrist 7.78618
lhand -27.8906 20.0791
lfingers 7.12502
lthumb -1.28026 50.055
rfemur 0.54244 4.99096 34.4386
rtibia 25.6091
rfoot -19.2095 -1.5549
rtoes 8.13069
lfemur -27.6793 0.566105 -11.7266
ltibia 40.256
lfoot -6.36942 3.89637
ltoes -6.032
